<svg width="20" height="20" viewBox="0 0 20 20" fill="none" xmlns="http://www.w3.org/2000/svg">
<path d="M7.94248 13.8075L3.82498 9.6925C3.76733 9.63281 3.69836 9.58519 3.62211 9.55244C3.54586 9.51968 3.46385 9.50244 3.38086 9.50172C3.29787 9.501 3.21557 9.51681 3.13876 9.54824C3.06195 9.57966 2.99217 9.62607 2.93349 9.68475C2.8748 9.74344 2.82839 9.81322 2.79697 9.89003C2.76554 9.96684 2.74973 10.0491 2.75045 10.1321C2.75117 10.2151 2.76841 10.2971 2.80117 10.3734C2.83392 10.4496 2.88154 10.5186 2.94123 10.5763L7.94123 15.5763L17.9412 5.57625C18.0551 5.45837 18.1181 5.3005 18.1167 5.13662C18.1152 4.97275 18.0495 4.81599 17.9336 4.70011C17.8177 4.58423 17.661 4.5185 17.4971 4.51708C17.3332 4.51566 17.1754 4.57865 17.0575 4.6925L7.94123 13.8075H7.94248Z" fill="#CDCDCD"/>
</svg>
