<svg width="30" height="30" viewBox="0 0 30 30" fill="none" xmlns="http://www.w3.org/2000/svg">
<path d="M22.3912 6.28687L15 13.6781L7.60874 6.28687C7.43097 6.1242 7.19729 6.03638 6.95638 6.04172C6.71547 6.04706 6.48591 6.14514 6.31552 6.31553C6.14513 6.48592 6.04705 6.71548 6.04171 6.95639C6.03637 7.1973 6.12419 7.43098 6.28686 7.60875L13.6744 15L6.28499 22.3894C6.19471 22.4754 6.12255 22.5786 6.07273 22.6929C6.02292 22.8073 5.99646 22.9304 5.99491 23.0551C5.99337 23.1798 6.01677 23.3035 6.06374 23.4191C6.11071 23.5346 6.18029 23.6396 6.26841 23.7278C6.35653 23.816 6.4614 23.8858 6.57686 23.9329C6.69231 23.98 6.81603 24.0036 6.94073 24.0023C7.06543 24.0009 7.18859 23.9746 7.30299 23.9249C7.41739 23.8753 7.5207 23.8033 7.60686 23.7131L15 16.3237L22.3912 23.715C22.569 23.8777 22.8027 23.9655 23.0436 23.9602C23.2845 23.9548 23.5141 23.8567 23.6845 23.6863C23.8549 23.516 23.9529 23.2864 23.9583 23.0455C23.9636 22.8046 23.8758 22.5709 23.7131 22.3931L16.3219 15.0019L23.7131 7.60875C23.8034 7.52271 23.8756 7.4195 23.9254 7.30518C23.9752 7.19085 24.0016 7.06772 24.0032 6.94302C24.0047 6.81833 23.9813 6.69458 23.9344 6.57905C23.8874 6.46353 23.8178 6.35856 23.7297 6.27032C23.6416 6.18208 23.5367 6.11234 23.4212 6.06521C23.3058 6.01807 23.1821 5.9945 23.0574 5.99587C22.9327 5.99724 22.8095 6.02352 22.6951 6.07317C22.5807 6.12282 22.4774 6.19484 22.3912 6.285V6.28687Z" fill="#E22727"/>
</svg>
